<svg width="36" height="19" viewBox="0 0 36 19" fill="none" xmlns="http://www.w3.org/2000/svg">
<path d="M3.93108 16.1633C3.78722 16.1489 3.55703 16.0194 3.39878 15.89C1.85943 14.3794 3.83038 12.6386 6.13221 11.6316V8.75428C6.66451 9.09956 6.96663 9.11395 6.98102 9.1571L8.73616 7.41634L8.14632 5.92015C13.2823 4.15061 15.3396 3.47445 19.5116 2.76951L18.7635 2.06457L19.9864 1.37402C22.7917 2.29476 25.4389 2.53933 24.9785 4.89871C25.0936 3.30181 23.1082 2.69758 20.0871 1.84878L19.4972 2.20844L20.6194 3.12917C15.6273 3.99236 12.5486 4.97064 8.89442 6.23665L9.39794 7.53143L7.55647 9.35851C7.85859 9.44483 11.0668 10.5094 14.39 8.19321C14.39 8.19321 14.462 8.15005 14.462 8.12128C14.3613 7.96303 14.1311 7.776 13.8577 7.53143C14.836 7.60336 15.469 8.45217 15.3539 9.34413H14.8936C14.9223 9.0564 14.8648 8.73989 14.7641 8.53848C12.1889 10.4231 9.19653 10.6965 6.65013 9.8045V12.0344C5.41289 12.466 3.21176 13.8327 3.22615 15.1563C3.31246 15.7749 3.62897 16.0051 3.93108 16.1633Z" fill="black"/>
<path d="M14.4635 15.4263C11.7013 16.8218 9.05414 17.944 4.98277 18.1022C-0.32584 17.9871 -1.14587 14.4624 1.35738 10.7795C3.73115 7.06778 7.5004 3.70135 13.4852 1.60093C15.2259 0.982307 17.7723 0.291757 20.2324 0.248598C23.7715 0.219825 27.2099 1.3132 26.9797 4.7084C26.8502 7.31236 23.0953 10.9665 21.1244 13.5992C20.2756 14.7502 20.1317 15.4983 21.5848 15.4263C26.8358 15.081 31.5834 13.2684 36 11.3837C33.0076 13.4122 17.5709 21.0514 17.5134 15.8435C17.5278 15.1818 17.8299 14.4768 18.3334 13.7287C18.8226 12.9806 19.4987 12.2038 20.2037 11.4125C21.2539 10.2184 23.8722 7.34113 24.7498 5.61475C26.2316 2.39218 22.9227 2.23393 20.0598 1.22688L18.8369 1.91742L19.585 2.62237C15.413 3.31292 13.3557 4.00347 8.21972 5.773L8.80957 7.26919L7.06881 8.99557C7.02565 8.95241 6.76669 8.93803 6.22001 8.59275V11.47C3.93256 12.4771 1.94722 14.2179 3.48658 15.7284C3.64483 15.8579 3.87501 15.9874 4.01888 16.0018C6.83862 17.5843 14.4778 15.4263 14.4635 15.4263Z" fill="#E28140"/>
</svg>
