<svg width="32" height="32" viewBox="0 0 32 32" fill="none" xmlns="http://www.w3.org/2000/svg">
<path fill-rule="evenodd" clip-rule="evenodd" d="M5.34679 2.25224e-07H26.6516C28.0699 -0.000411149 29.4304 0.562727 30.4334 1.56549C31.4364 2.56825 32 3.92846 32 5.34679V26.65C32 29.6039 29.6054 31.9984 26.6516 31.9984H5.34679C2.39358 31.9975 0 29.6033 0 26.65V5.34679C0 2.39383 2.39383 2.25224e-07 5.34679 2.25224e-07ZM24.4983 26.1812C25.4303 26.1812 26.1859 25.4256 26.1859 24.4936L26.1812 7.50629C26.1812 6.57427 25.4256 5.81873 24.4936 5.81873H7.50784C7.06001 5.81873 6.63053 5.99675 6.31401 6.31356C5.99749 6.63037 5.81988 7.06001 5.82029 7.50784V24.4936C5.82029 25.4256 6.57583 26.1812 7.50784 26.1812H24.4983Z" fill="#3E4348"/>
<path d="M12.6047 20.3376C12.0727 20.3334 11.6437 19.901 11.6437 19.369V12.5877C11.6425 12.3299 11.744 12.0823 11.9258 11.8996C12.1076 11.717 12.3547 11.6143 12.6124 11.6143H19.4031C19.6607 11.6147 19.9075 11.7175 20.0893 11.9001C20.271 12.0827 20.3726 12.3301 20.3718 12.5877V19.3674C20.3726 19.625 20.271 19.8724 20.0893 20.0549C19.9075 20.2376 19.6607 20.3404 19.4031 20.3408L12.6047 20.3376Z" fill="#3E4348"/>
</svg>
