<svg width="32" height="31" viewBox="0 0 32 31" fill="none" xmlns="http://www.w3.org/2000/svg">
<path d="M29.3974 6.02486C29.0487 5.54517 28.7037 5.06549 28.4 4.58203L9.75654 15.3692L0.757293 10.172C0.550748 10.7328 0.424493 11.3204 0.382324 11.917L9.84278 17.4353L29.3974 6.02486Z" fill="#53B56C"/>
<path d="M9.75647 19.4296L0.0897733 13.8395C0.0182396 14.1834 -0.0107284 14.5348 0.00353064 14.8858C0.00353064 19.1597 1.68903 23.2585 4.68925 26.2806C7.68946 29.3027 11.7586 31.0005 16.0016 31.0005C20.2445 31.0005 24.3137 29.3027 27.3139 26.2806C30.3141 23.2585 31.9996 19.1597 31.9996 14.8858C32.0175 12.3359 31.4232 9.81939 30.2673 7.55078L9.75647 19.4296Z" fill="#53B56C"/>
<path d="M27.0989 3.22937C26.6432 2.79619 26.1651 2.3877 25.6665 2.00562L9.75656 11.3084L2.0847 6.89687C1.82597 7.37656 1.56349 7.90157 1.25977 8.46812L9.67031 13.3594L27.0989 3.22937Z" fill="#53B56C"/>
<path d="M24.1065 0.959367C23.5044 0.596261 22.8779 0.275701 22.2317 0L9.75646 7.2368L4.16568 4.06031C3.79071 4.43801 3.41574 4.93281 3.04077 5.41249L9.71521 9.25751L24.1065 0.959367Z" fill="#53B56C"/>
</svg>
